<?xml version="1.0" standalone="no"?>
<!DOCTYPE svg PUBLIC "-//W3C//DTD SVG 20010904//EN"
 "http://www.w3.org/TR/2001/REC-SVG-20010904/DTD/svg10.dtd">
<svg version="1.0" xmlns="http://www.w3.org/2000/svg"
 width="400.000000pt" height="400.000000pt" viewBox="0 0 400.000000 400.000000"
 preserveAspectRatio="xMidYMid meet">
<metadata>
Created by potrace 1.11, written by Peter Selinger 2001-2013
</metadata>
<g transform="translate(0.000000,400.000000) scale(0.100000,-0.100000)"
fill="#000000" stroke="none">
<path d="M1886 3985 c-8 -8 -19 -15 -25 -15 -6 0 -11 -7 -11 -15 0 -9 -7 -18
-15 -21 -8 -4 -25 -27 -36 -53 -38 -84 -37 -301 2 -301 5 0 9 -7 9 -14 0 -8
11 -36 25 -63 17 -31 25 -60 23 -83 -3 -33 -7 -37 -98 -82 -52 -26 -109 -50
-126 -54 -44 -8 -107 -77 -132 -144 -12 -31 -30 -128 -42 -225 -24 -189 -42
-284 -72 -394 -17 -62 -20 -93 -15 -190 3 -68 11 -135 21 -161 19 -54 22 -234
4 -309 -13 -57 -5 -82 42 -133 22 -24 32 -28 83 -28 49 0 59 3 65 20 12 33 -4
169 -28 244 -17 51 -21 81 -16 120 3 28 12 105 20 171 9 66 13 151 10 190 -5
60 -2 83 25 163 17 52 32 106 32 120 1 15 6 -2 12 -38 14 -91 12 -207 -7 -335
-11 -77 -16 -187 -17 -370 -1 -233 1 -269 20 -348 11 -48 21 -100 21 -115 0
-16 8 -55 19 -88 23 -71 41 -342 34 -514 -4 -117 7 -203 41 -300 46 -136 59
-205 58 -319 -1 -102 -3 -116 -23 -137 -13 -14 -23 -41 -26 -68 -5 -42 -4 -46
21 -56 15 -5 59 -10 97 -10 62 0 73 3 96 26 l26 26 18 -23 c16 -21 28 -24 98
-27 121 -6 154 23 115 101 -9 18 -21 35 -26 38 -14 9 -27 160 -18 204 5 22 16
76 26 120 16 77 27 118 44 160 30 74 49 270 33 340 -13 54 12 364 37 465 43
174 50 247 50 540 0 214 -4 305 -16 377 -12 67 -15 124 -10 196 3 56 8 135 10
175 5 92 16 107 16 22 0 -44 8 -87 27 -139 23 -65 27 -95 30 -210 2 -74 7
-151 12 -170 6 -20 13 -81 16 -136 6 -84 3 -110 -13 -165 -12 -38 -22 -102
-24 -155 l-3 -90 61 -3 c52 -2 64 0 86 21 48 45 51 58 39 201 -7 80 -7 150 -2
181 5 28 16 93 26 145 22 124 14 204 -41 398 -9 30 -19 88 -24 130 -17 165
-43 328 -56 359 -8 17 -14 35 -14 40 0 20 -87 101 -115 107 -16 4 -43 13 -60
20 -16 7 -42 18 -57 24 -51 21 -109 63 -120 87 -9 20 -4 38 36 119 44 91 46
99 46 184 0 132 -34 215 -109 264 -35 24 -212 26 -235 3z m135 -2805 c0 -146
-1 -301 -2 -345 -1 -44 2 -157 6 -251 6 -127 4 -180 -5 -208 -11 -35 -13 -37
-29 -22 -14 15 -16 41 -12 204 5 283 5 356 -4 486 -5 77 -3 194 5 330 l14 211
14 -70 c10 -51 14 -141 13 -335z"/>
</g>
</svg>
